<svg xmlns="http://www.w3.org/2000/svg" xmlns:xlink="http://www.w3.org/1999/xlink" width="500" zoomAndPan="magnify" viewBox="0 0 375 374.999991" height="500" preserveAspectRatio="xMidYMid meet" version="1.0"><defs><clipPath id="5542b56c33"><path d="M 2.953125 2.953125 L 371.953125 2.953125 L 371.953125 371.953125 L 2.953125 371.953125 Z M 2.953125 2.953125 " clip-rule="nonzero"/></clipPath><clipPath id="58b313ea8a"><path d="M 183 361 L 192 361 L 192 371.953125 L 183 371.953125 Z M 183 361 " clip-rule="nonzero"/></clipPath></defs><g clip-path="url(#5542b56c33)"><path fill="#4f46e5" d="M 242.199219 138.847656 L 236.140625 138.847656 L 236.140625 32.570312 C 236.140625 28.859375 233.578125 25.832031 230.429688 25.832031 L 144.585938 25.832031 C 141.4375 25.832031 138.871094 28.859375 138.871094 32.570312 L 138.871094 34.914062 C 130.9375 37.625 123.515625 40.480469 115.972656 44.265625 L 115.972656 32.570312 C 115.972656 16.726562 128.421875 2.953125 144.585938 2.953125 L 230.429688 2.953125 C 246.59375 2.953125 259.042969 16.726562 259.042969 32.570312 L 259.042969 115.972656 L 279.992188 115.972656 L 281.433594 118.097656 C 268.027344 124.394531 254.964844 131.378906 242.199219 138.871094 Z M 44.265625 259.019531 L 32.570312 259.019531 C 16.75 259.019531 2.953125 246.566406 2.953125 230.40625 L 2.953125 144.5625 C 2.953125 128.398438 16.75 115.949219 32.570312 115.949219 L 115.972656 115.949219 L 115.972656 95 C 123.539062 89.824219 130.402344 85.257812 138.871094 81.375 L 138.871094 138.847656 L 32.59375 138.847656 C 28.882812 138.847656 25.855469 141.414062 25.855469 144.5625 L 25.855469 230.40625 C 25.855469 233.554688 28.882812 236.117188 32.59375 236.117188 L 34.9375 236.117188 C 37.625 243.957031 40.578125 251.597656 44.289062 259.019531 Z M 259.019531 330.726562 L 259.019531 342.421875 C 259.019531 358.265625 246.566406 372.035156 230.40625 372.035156 L 144.5625 372.035156 C 135.96875 372.035156 128.398438 368.15625 123.101562 361.929688 C 118.707031 356.753906 115.972656 349.84375 115.972656 342.421875 L 115.972656 259.042969 L 95.023438 259.042969 C 89.847656 251.476562 85.28125 244.613281 81.398438 236.140625 L 138.871094 236.140625 L 138.871094 342.421875 C 138.871094 346.132812 141.460938 349.160156 144.585938 349.160156 L 230.429688 349.160156 C 233.578125 349.160156 236.144531 346.132812 236.144531 342.421875 L 236.144531 340.078125 C 243.980469 337.390625 251.621094 334.4375 259.042969 330.726562 Z M 325.671875 111.332031 C 277.28125 136.40625 211.605469 195.394531 179.769531 235.898438 C 161.261719 211.265625 139.265625 181.28125 116.242188 165.609375 C 139.558594 171.90625 158.601562 184.480469 179.769531 193.90625 C 223.25 160.261719 273.300781 128.789062 325.671875 111.332031 Z M 178.058594 139.117188 C 187.289062 139.117188 194.785156 146.589844 194.785156 155.839844 C 194.785156 165.070312 187.289062 172.566406 178.058594 172.566406 C 168.832031 172.566406 161.335938 165.070312 161.335938 155.839844 C 161.335938 146.613281 168.804688 139.117188 178.058594 139.117188 Z M 372.035156 144.585938 L 372.035156 230.429688 C 372.035156 246.59375 358.242188 259.042969 342.421875 259.042969 L 259.019531 259.042969 L 259.019531 279.992188 C 251.449219 285.167969 244.589844 289.734375 236.117188 293.617188 L 236.117188 236.144531 L 342.394531 236.144531 C 346.105469 236.144531 349.136719 233.578125 349.136719 230.429688 L 349.136719 144.585938 C 349.136719 141.4375 346.109375 138.871094 342.394531 138.871094 L 340.054688 138.871094 C 337.757812 132.207031 335.390625 125.859375 332.386719 119.4375 L 338.78125 115.972656 L 342.398438 115.972656 C 358.242188 115.972656 372.011719 128.421875 372.011719 144.585938 Z M 372.035156 144.585938 " fill-opacity="1" fill-rule="nonzero"/></g><path fill="#5bc198" d="M 290.855469 113.773438 C 284.65625 105.105469 277.378906 97.222656 269.25 90.359375 L 269.25 61.894531 C 286.460938 73.125 301.28125 87.847656 312.585938 104.984375 C 305.238281 107.671875 298.011719 110.625 290.855469 113.773438 Z M 308.507812 225.886719 C 312.34375 213.777344 314.417969 200.863281 314.417969 187.484375 C 314.417969 169.292969 310.582031 152.03125 303.722656 136.382812 C 310.191406 132.035156 316.761719 127.960938 323.351562 124.25 C 332.3125 143.460938 337.320312 164.875 337.320312 187.457031 C 337.320312 200.742188 335.585938 213.609375 332.363281 225.863281 L 308.53125 225.863281 Z M 149.078125 308.507812 C 161.1875 312.34375 174.105469 314.417969 187.484375 314.417969 C 226.449219 314.417969 261.289062 296.863281 284.582031 269.226562 L 313.050781 269.226562 C 285.363281 311.660156 238.367188 337.292969 187.484375 337.292969 C 174.203125 337.292969 161.335938 335.5625 149.078125 332.3125 L 149.078125 308.484375 Z M 66.457031 149.078125 C 62.625 161.1875 60.550781 174.105469 60.550781 187.484375 C 60.550781 226.449219 78.105469 261.289062 105.742188 284.582031 L 105.742188 313.050781 C 63.308594 285.363281 37.671875 238.367188 37.671875 187.460938 C 37.671875 174.179688 39.40625 161.3125 42.628906 149.054688 L 66.457031 149.054688 Z M 187.484375 37.648438 C 200.765625 37.648438 213.632812 39.382812 225.890625 42.605469 L 225.890625 66.433594 C 213.78125 62.601562 200.863281 60.527344 187.484375 60.527344 C 148.519531 60.527344 113.675781 78.078125 90.386719 105.71875 L 61.917969 105.71875 C 89.652344 63.210938 136.726562 37.648438 187.507812 37.648438 Z M 187.484375 37.648438 " fill-opacity="1" fill-rule="nonzero"/><g clip-path="url(#58b313ea8a)"><path fill="#333333" d="M 183.28125 371.96875 L 183.285156 371.96875 L 183.371094 372.035156 C 186.074219 368.527344 188.890625 365.03125 191.710938 361.527344 C 188.90625 365.011719 185.972656 368.480469 183.28125 371.96875 Z M 183.28125 371.96875 " fill-opacity="1" fill-rule="nonzero"/></g></svg>